#N canvas 603 106 1023 789 10;
#X obj 43 349 dac~;
#N canvas 0 22 450 300 (subpatch) 0;
#X array voice 88200 float 2;
#X coords 0 1 88199 -1 400 140 1;
#X restore 382 44 graph;
#X obj 395 280 adc~;
#X obj 395 333 tabwrite~ voice;
#X obj 341 283 bng 15 250 50 0 empty empty empty 17 7 0 10 -262144
-1 -1;
#X msg 573 315 \; voice normalize;
#X obj 43 240 vline~;
#X obj 43 296 tabread4~ voice;
#X obj 383 26 hsl 400 15 2 88197 0 0 empty empty empty -2 -8 0 10 -262144
-1 -1 39900 1;
#X obj 255 274 line;
#X obj 383 186 hsl 400 15 2 88197 0 0 empty empty empty -2 -8 0 10
-262144 -1 -1 39900 1;
#X obj 43 186 pack f 60;
#X text 45 456 adapted from Tom Erbe example;
#X obj 41 22 receive fromGUI;
#X obj 41 50 list trim;
#X obj 41 77 route /scrub /record /normalize;
#X obj 207 192 t b;
#X obj 249 191 t b;
#X obj 808 557 * 4;
#X obj 808 583 - 2;
#X floatatom 808 612 5 0 0 0 - - -, f 5;
#X obj 864 646 send toGUI;
#X obj 751 280 route list;
#X obj 751 248 receive fromSystem;
#X obj 751 304 route /tilts;
#X obj 751 336 unpack f f;
#X floatatom 808 361 5 0 0 0 - - -, f 5;
#X obj 808 390 + 1;
#X obj 808 418 * 0.5;
#X floatatom 808 534 5 0 0 0 - - -, f 5;
#X obj 808 483 line;
#X msg 808 462 \$1 100;
#X msg 864 612 list /scrub \$1;
#X obj 713 529 * 88197;
#X floatatom 713 554 5 0 0 0 - - -, f 5;
#X connect 2 0 3 0;
#X connect 4 0 3 0;
#X connect 6 0 7 0;
#X connect 7 0 0 0;
#X connect 7 0 0 1;
#X connect 8 0 11 0;
#X connect 9 0 10 0;
#X connect 11 0 6 0;
#X connect 11 0 9 0;
#X connect 13 0 14 0;
#X connect 14 0 15 0;
#X connect 15 1 16 0;
#X connect 15 2 17 0;
#X connect 16 0 4 0;
#X connect 17 0 5 0;
#X connect 18 0 19 0;
#X connect 19 0 20 0;
#X connect 22 0 24 0;
#X connect 23 0 22 0;
#X connect 24 0 25 0;
#X connect 25 1 26 0;
#X connect 26 0 27 0;
#X connect 27 0 28 0;
#X connect 28 0 31 0;
#X connect 29 0 18 0;
#X connect 29 0 32 0;
#X connect 30 0 29 0;
#X connect 30 0 33 0;
#X connect 31 0 30 0;
#X connect 32 0 21 0;
#X connect 33 0 34 0;
#X connect 34 0 8 0;
